<svg xmlns="http://www.w3.org/2000/svg" xmlns:xlink="http://www.w3.org/1999/xlink" contentStyleType="text/css" data-diagram-type="CLASS" height="758px" preserveAspectRatio="none" style="width:550px;height:758px;background:#FFFFFF;" version="1.1" viewBox="0 0 550 758" width="550px" zoomAndPan="magnify"><defs/><g><!--class City--><g id="elem_City"><rect codeLine="4" fill="#F1F1F1" height="74.8906" id="City" rx="2.5" ry="2.5" style="stroke:#181818;stroke-width:0.5;" width="125.7227" x="95.5" y="7"/><text fill="#000000" font-family="sans-serif" font-size="14" lengthAdjust="spacing" textLength="27.4395" x="144.6416" y="24.9951">City</text><line style="stroke:#181818;stroke-width:0.5;" x1="96.5" x2="220.2227" y1="33.2969" y2="33.2969"/><ellipse cx="106.5" cy="46.9453" fill="#000000" rx="3" ry="3" style="stroke:#000000;stroke-width:1;"/><text fill="#000000" font-family="sans-serif" font-size="14" lengthAdjust="spacing" textLength="99.7227" x="115.5" y="50.292">id : Long &#171;PK&#187;</text><ellipse cx="106.5" cy="63.2422" fill="#000000" rx="3" ry="3" style="stroke:#000000;stroke-width:1;"/><text fill="#000000" font-family="sans-serif" font-size="14" lengthAdjust="spacing" textLength="95.1016" x="115.5" y="66.5889">name : String</text><line style="stroke:#181818;stroke-width:0.5;" x1="96.5" x2="220.2227" y1="73.8906" y2="73.8906"/></g><!--class Theatre--><g id="elem_Theatre"><rect codeLine="9" fill="#F1F1F1" height="91.1875" id="Theatre" rx="2.5" ry="2.5" style="stroke:#181818;stroke-width:0.5;" width="174.1143" x="289.5" y="158.5"/><text fill="#000000" font-family="sans-serif" font-size="14" lengthAdjust="spacing" textLength="54.4756" x="349.3193" y="176.4951">Theatre</text><line style="stroke:#181818;stroke-width:0.5;" x1="290.5" x2="462.6143" y1="184.7969" y2="184.7969"/><ellipse cx="300.5" cy="198.4453" fill="#000000" rx="3" ry="3" style="stroke:#000000;stroke-width:1;"/><text fill="#000000" font-family="sans-serif" font-size="14" lengthAdjust="spacing" textLength="99.7227" x="309.5" y="201.792">id : Long &#171;PK&#187;</text><ellipse cx="300.5" cy="214.7422" fill="#000000" rx="3" ry="3" style="stroke:#000000;stroke-width:1;"/><text fill="#000000" font-family="sans-serif" font-size="14" lengthAdjust="spacing" textLength="148.1143" x="309.5" y="218.0889">theatreName : String</text><ellipse cx="300.5" cy="231.0391" fill="#000000" rx="3" ry="3" style="stroke:#000000;stroke-width:1;"/><text fill="#000000" font-family="sans-serif" font-size="14" lengthAdjust="spacing" textLength="131.6943" x="309.5" y="234.3857">city_id : Long &#171;FK&#187;</text><line style="stroke:#181818;stroke-width:0.5;" x1="290.5" x2="462.6143" y1="241.6875" y2="241.6875"/></g><!--class Screen--><g id="elem_Screen"><rect codeLine="15" fill="#F1F1F1" height="91.1875" id="Screen" rx="2.5" ry="2.5" style="stroke:#181818;stroke-width:0.5;" width="183.7461" x="64.5" y="342.5"/><text fill="#000000" font-family="sans-serif" font-size="14" lengthAdjust="spacing" textLength="48.4395" x="132.1533" y="360.4951">Screen</text><line style="stroke:#181818;stroke-width:0.5;" x1="65.5" x2="247.2461" y1="368.7969" y2="368.7969"/><ellipse cx="75.5" cy="382.4453" fill="#000000" rx="3" ry="3" style="stroke:#000000;stroke-width:1;"/><text fill="#000000" font-family="sans-serif" font-size="14" lengthAdjust="spacing" textLength="99.7227" x="84.5" y="385.792">id : Long &#171;PK&#187;</text><ellipse cx="75.5" cy="398.7422" fill="#000000" rx="3" ry="3" style="stroke:#000000;stroke-width:1;"/><text fill="#000000" font-family="sans-serif" font-size="14" lengthAdjust="spacing" textLength="143.5479" x="84.5" y="402.0889">screenName : String</text><ellipse cx="75.5" cy="415.0391" fill="#000000" rx="3" ry="3" style="stroke:#000000;stroke-width:1;"/><text fill="#000000" font-family="sans-serif" font-size="14" lengthAdjust="spacing" textLength="157.7461" x="84.5" y="418.3857">theatre_id : Long &#171;FK&#187;</text><line style="stroke:#181818;stroke-width:0.5;" x1="65.5" x2="247.2461" y1="425.6875" y2="425.6875"/></g><!--class Seat--><g id="elem_Seat"><rect codeLine="21" fill="#F1F1F1" height="107.4844" id="Seat" rx="2.5" ry="2.5" style="stroke:#181818;stroke-width:0.5;" width="179.1797" x="31" y="510"/><text fill="#000000" font-family="sans-serif" font-size="14" lengthAdjust="spacing" textLength="31.5684" x="104.8057" y="527.9951">Seat</text><line style="stroke:#181818;stroke-width:0.5;" x1="32" x2="209.1797" y1="536.2969" y2="536.2969"/><ellipse cx="42" cy="549.9453" fill="#000000" rx="3" ry="3" style="stroke:#000000;stroke-width:1;"/><text fill="#000000" font-family="sans-serif" font-size="14" lengthAdjust="spacing" textLength="99.7227" x="51" y="553.292">id : Long &#171;PK&#187;</text><ellipse cx="42" cy="566.2422" fill="#000000" rx="3" ry="3" style="stroke:#000000;stroke-width:1;"/><text fill="#000000" font-family="sans-serif" font-size="14" lengthAdjust="spacing" textLength="141.6133" x="51" y="569.5889">seatNumber : String</text><ellipse cx="42" cy="582.5391" fill="#000000" rx="3" ry="3" style="stroke:#000000;stroke-width:1;"/><text fill="#000000" font-family="sans-serif" font-size="14" lengthAdjust="spacing" textLength="118.1592" x="51" y="585.8857">seatType : Enum</text><ellipse cx="42" cy="598.8359" fill="#000000" rx="3" ry="3" style="stroke:#000000;stroke-width:1;"/><text fill="#000000" font-family="sans-serif" font-size="14" lengthAdjust="spacing" textLength="153.1797" x="51" y="602.1826">screen_id : Long &#171;FK&#187;</text><line style="stroke:#181818;stroke-width:0.5;" x1="32" x2="209.1797" y1="609.4844" y2="609.4844"/></g><!--class Movie--><g id="elem_Movie"><rect codeLine="28" fill="#F1F1F1" height="91.1875" id="Movie" rx="2.5" ry="2.5" style="stroke:#181818;stroke-width:0.5;" width="184.8945" x="284" y="518"/><text fill="#000000" font-family="sans-serif" font-size="14" lengthAdjust="spacing" textLength="41.4326" x="355.731" y="535.9951">Movie</text><line style="stroke:#181818;stroke-width:0.5;" x1="285" x2="467.8945" y1="544.2969" y2="544.2969"/><ellipse cx="295" cy="557.9453" fill="#000000" rx="3" ry="3" style="stroke:#000000;stroke-width:1;"/><text fill="#000000" font-family="sans-serif" font-size="14" lengthAdjust="spacing" textLength="142.9531" x="304" y="561.292">movieId : Long &#171;PK&#187;</text><ellipse cx="295" cy="574.2422" fill="#000000" rx="3" ry="3" style="stroke:#000000;stroke-width:1;"/><text fill="#000000" font-family="sans-serif" font-size="14" lengthAdjust="spacing" textLength="139.6924" x="304" y="577.5889">movieName : String</text><ellipse cx="295" cy="590.5391" fill="#000000" rx="3" ry="3" style="stroke:#000000;stroke-width:1;"/><text fill="#000000" font-family="sans-serif" font-size="14" lengthAdjust="spacing" textLength="158.8945" x="304" y="593.8857">durationInMinutes : int</text><line style="stroke:#181818;stroke-width:0.5;" x1="285" x2="467.8945" y1="601.1875" y2="601.1875"/></g><!--class Show--><g id="elem_Show"><rect codeLine="34" fill="#F1F1F1" height="123.7813" id="Show" rx="2.5" ry="2.5" style="stroke:#181818;stroke-width:0.5;" width="186.4736" x="283.5" y="326"/><text fill="#000000" font-family="sans-serif" font-size="14" lengthAdjust="spacing" textLength="37.7754" x="357.8491" y="343.9951">Show</text><line style="stroke:#181818;stroke-width:0.5;" x1="284.5" x2="468.9736" y1="352.2969" y2="352.2969"/><ellipse cx="294.5" cy="365.9453" fill="#000000" rx="3" ry="3" style="stroke:#000000;stroke-width:1;"/><text fill="#000000" font-family="sans-serif" font-size="14" lengthAdjust="spacing" textLength="99.7227" x="303.5" y="369.292">id : Long &#171;PK&#187;</text><ellipse cx="294.5" cy="382.2422" fill="#000000" rx="3" ry="3" style="stroke:#000000;stroke-width:1;"/><text fill="#000000" font-family="sans-serif" font-size="14" lengthAdjust="spacing" textLength="160.4736" x="303.5" y="385.5889">showStartTime : String</text><ellipse cx="294.5" cy="398.5391" fill="#000000" rx="3" ry="3" style="stroke:#000000;stroke-width:1;"/><text fill="#000000" font-family="sans-serif" font-size="14" lengthAdjust="spacing" textLength="153.2549" x="303.5" y="401.8857">showDate : LocalDate</text><ellipse cx="294.5" cy="414.8359" fill="#000000" rx="3" ry="3" style="stroke:#000000;stroke-width:1;"/><text fill="#000000" font-family="sans-serif" font-size="14" lengthAdjust="spacing" textLength="149.3242" x="303.5" y="418.1826">movie_id : Long &#171;FK&#187;</text><ellipse cx="294.5" cy="431.1328" fill="#000000" rx="3" ry="3" style="stroke:#000000;stroke-width:1;"/><text fill="#000000" font-family="sans-serif" font-size="14" lengthAdjust="spacing" textLength="157.7461" x="303.5" y="434.4795">theatre_id : Long &#171;FK&#187;</text><line style="stroke:#181818;stroke-width:0.5;" x1="284.5" x2="468.9736" y1="441.7813" y2="441.7813"/></g><!--class Booking--><g id="elem_Booking"><rect codeLine="42" fill="#F1F1F1" height="123.7813" id="Booking" rx="2.5" ry="2.5" style="stroke:#181818;stroke-width:0.5;" width="234.7695" x="7" y="142"/><text fill="#000000" font-family="sans-serif" font-size="14" lengthAdjust="spacing" textLength="56.4922" x="96.1387" y="159.9951">Booking</text><line style="stroke:#181818;stroke-width:0.5;" x1="8" x2="240.7695" y1="168.2969" y2="168.2969"/><ellipse cx="18" cy="181.9453" fill="#000000" rx="3" ry="3" style="stroke:#000000;stroke-width:1;"/><text fill="#000000" font-family="sans-serif" font-size="14" lengthAdjust="spacing" textLength="107.3789" x="27" y="185.292">id : String &#171;PK&#187;</text><ellipse cx="18" cy="198.2422" fill="#000000" rx="3" ry="3" style="stroke:#000000;stroke-width:1;"/><text fill="#000000" font-family="sans-serif" font-size="14" lengthAdjust="spacing" textLength="142.5156" x="27" y="201.5889">show_id : Long &#171;FK&#187;</text><ellipse cx="18" cy="214.5391" fill="#000000" rx="3" ry="3" style="stroke:#000000;stroke-width:1;"/><text fill="#000000" font-family="sans-serif" font-size="14" lengthAdjust="spacing" textLength="136.3086" x="27" y="217.8857">seat_id : Long &#171;FK&#187;</text><ellipse cx="18" cy="230.8359" fill="#000000" rx="3" ry="3" style="stroke:#000000;stroke-width:1;"/><text fill="#000000" font-family="sans-serif" font-size="14" lengthAdjust="spacing" textLength="98.9502" x="27" y="234.1826">userId : String</text><ellipse cx="18" cy="247.1328" fill="#000000" rx="3" ry="3" style="stroke:#000000;stroke-width:1;"/><text fill="#000000" font-family="sans-serif" font-size="14" lengthAdjust="spacing" textLength="208.7695" x="27" y="250.4795">bookingTime : LocalDateTime</text><line style="stroke:#181818;stroke-width:0.5;" x1="8" x2="240.7695" y1="257.7813" y2="257.7813"/></g><!--class city_movie--><g id="elem_city_movie"><rect codeLine="51" fill="#F1F1F1" height="74.8906" id="city_movie" rx="2.5" ry="2.5" style="stroke:#181818;stroke-width:0.5;" width="175.3242" x="37" y="677"/><text fill="#000000" font-family="sans-serif" font-size="14" lengthAdjust="spacing" textLength="75.3525" x="86.9858" y="694.9951">city_movie</text><line style="stroke:#181818;stroke-width:0.5;" x1="38" x2="211.3242" y1="703.2969" y2="703.2969"/><ellipse cx="48" cy="716.9453" fill="#000000" rx="3" ry="3" style="stroke:#000000;stroke-width:1;"/><text fill="#000000" font-family="sans-serif" font-size="14" lengthAdjust="spacing" textLength="131.6943" x="57" y="720.292">city_id : Long &#171;FK&#187;</text><ellipse cx="48" cy="733.2422" fill="#000000" rx="3" ry="3" style="stroke:#000000;stroke-width:1;"/><text fill="#000000" font-family="sans-serif" font-size="14" lengthAdjust="spacing" textLength="149.3242" x="57" y="736.5889">movie_id : Long &#171;FK&#187;</text><line style="stroke:#181818;stroke-width:0.5;" x1="38" x2="211.3242" y1="743.8906" y2="743.8906"/></g><!--class movie_theatre--><g id="elem_movie_theatre"><rect codeLine="55" fill="#F1F1F1" height="74.8906" id="movie_theatre" rx="2.5" ry="2.5" style="stroke:#181818;stroke-width:0.5;" width="183.7461" x="357.5" y="677"/><text fill="#000000" font-family="sans-serif" font-size="14" lengthAdjust="spacing" textLength="101.4043" x="398.6709" y="694.9951">movie_theatre</text><line style="stroke:#181818;stroke-width:0.5;" x1="358.5" x2="540.2461" y1="703.2969" y2="703.2969"/><ellipse cx="368.5" cy="716.9453" fill="#000000" rx="3" ry="3" style="stroke:#000000;stroke-width:1;"/><text fill="#000000" font-family="sans-serif" font-size="14" lengthAdjust="spacing" textLength="149.3242" x="377.5" y="720.292">movie_id : Long &#171;FK&#187;</text><ellipse cx="368.5" cy="733.2422" fill="#000000" rx="3" ry="3" style="stroke:#000000;stroke-width:1;"/><text fill="#000000" font-family="sans-serif" font-size="14" lengthAdjust="spacing" textLength="157.7461" x="377.5" y="736.5889">theatre_id : Long &#171;FK&#187;</text><line style="stroke:#181818;stroke-width:0.5;" x1="358.5" x2="540.2461" y1="743.8906" y2="743.8906"/></g><!--link City to Theatre--><g id="link_City_Theatre"><path codeLine="61" d="M229.55,32 C293.94,32 376.5,32 376.5,32 C376.5,32 376.5,89.4 376.5,140.36 " fill="transparent" id="City-Theatre" style="stroke:#181818;stroke-width:1;"/><line style="stroke:#181818;stroke-width:1;" x1="225.55" x2="225.55" y1="36" y2="28"/><line style="stroke:#181818;stroke-width:1;" x1="228.55" x2="228.55" y1="36" y2="28"/><line style="stroke:#181818;stroke-width:1;" x1="229.55" x2="221.55" y1="32" y2="32"/><line style="stroke:#181818;stroke-width:1;" x1="376.5" x2="382.5" y1="150.36" y2="158.36"/><line style="stroke:#181818;stroke-width:1;" x1="376.5" x2="370.5" y1="150.36" y2="158.36"/><line style="stroke:#181818;stroke-width:1;" x1="376.5" x2="376.5" y1="150.36" y2="158.36"/><ellipse cx="376.5" cy="144.36" fill="transparent" rx="4" ry="4" style="stroke:#181818;stroke-width:1;"/><text fill="#000000" font-family="sans-serif" font-size="13" lengthAdjust="spacing" textLength="22.9785" x="339.21" y="28.0669">has</text></g><!--link City to city_movie--><g id="link_City_city_movie"><path codeLine="62" d="M229.73,57 C250.41,57 260.17,57 260.17,57 C260.17,57 260.17,703 260.17,703 C260.17,703 256.42,703 230.34,703 " fill="transparent" id="City-city_movie" style="stroke:#181818;stroke-width:1;"/><line style="stroke:#181818;stroke-width:1;" x1="225.73" x2="225.73" y1="61" y2="53"/><line style="stroke:#181818;stroke-width:1;" x1="228.73" x2="228.73" y1="61" y2="53"/><line style="stroke:#181818;stroke-width:1;" x1="229.73" x2="221.73" y1="57" y2="57"/><line style="stroke:#181818;stroke-width:1;" x1="220.34" x2="212.34" y1="703" y2="709"/><line style="stroke:#181818;stroke-width:1;" x1="220.34" x2="212.34" y1="703" y2="697"/><line style="stroke:#181818;stroke-width:1;" x1="220.34" x2="212.34" y1="703" y2="703"/><ellipse cx="226.34" cy="703" fill="transparent" rx="4" ry="4" style="stroke:#181818;stroke-width:1;"/><text fill="#000000" font-family="sans-serif" font-size="13" lengthAdjust="spacing" textLength="35.6548" x="251.92" y="397.7669">maps</text></g><!--link Movie to city_movie--><g id="link_Movie_city_movie"><path codeLine="63" d="M320.75,617.32 C320.75,666 320.75,728 320.75,728 C320.75,728 282.34,728 230.01,728 " fill="transparent" id="Movie-city_movie" style="stroke:#181818;stroke-width:1;"/><line style="stroke:#181818;stroke-width:1;" x1="316.75" x2="324.75" y1="613.32" y2="613.32"/><line style="stroke:#181818;stroke-width:1;" x1="316.75" x2="324.75" y1="616.32" y2="616.32"/><line style="stroke:#181818;stroke-width:1;" x1="320.75" x2="320.75" y1="617.32" y2="609.32"/><line style="stroke:#181818;stroke-width:1;" x1="220.01" x2="212.01" y1="728" y2="734"/><line style="stroke:#181818;stroke-width:1;" x1="220.01" x2="212.01" y1="728" y2="722"/><line style="stroke:#181818;stroke-width:1;" x1="220.01" x2="212.01" y1="728" y2="728"/><ellipse cx="226.01" cy="728" fill="transparent" rx="4" ry="4" style="stroke:#181818;stroke-width:1;"/><text fill="#000000" font-family="sans-serif" font-size="13" lengthAdjust="spacing" textLength="35.6548" x="284.75" y="719.0969">maps</text></g><!--link Movie to movie_theatre--><g id="link_Movie_movie_theatre"><path codeLine="64" d="M413.25,617.21 C413.25,638.74 413.25,638.12 413.25,658.56 " fill="transparent" id="Movie-movie_theatre" style="stroke:#181818;stroke-width:1;"/><line style="stroke:#181818;stroke-width:1;" x1="409.25" x2="417.25" y1="613.21" y2="613.21"/><line style="stroke:#181818;stroke-width:1;" x1="409.25" x2="417.25" y1="616.21" y2="616.21"/><line style="stroke:#181818;stroke-width:1;" x1="413.25" x2="413.25" y1="617.21" y2="609.21"/><line style="stroke:#181818;stroke-width:1;" x1="413.25" x2="419.25" y1="668.56" y2="676.56"/><line style="stroke:#181818;stroke-width:1;" x1="413.25" x2="407.25" y1="668.56" y2="676.56"/><line style="stroke:#181818;stroke-width:1;" x1="413.25" x2="413.25" y1="668.56" y2="676.56"/><ellipse cx="413.25" cy="662.56" fill="transparent" rx="4" ry="4" style="stroke:#181818;stroke-width:1;"/><text fill="#000000" font-family="sans-serif" font-size="13" lengthAdjust="spacing" textLength="35.6548" x="377.25" y="638.9569">maps</text></g><!--link Theatre to movie_theatre--><g id="link_Theatre_movie_theatre"><path codeLine="65" d="M471.62,204 C494.79,204 505.5,204 505.5,204 C505.5,204 505.5,541.07 505.5,658.96 " fill="transparent" id="Theatre-movie_theatre" style="stroke:#181818;stroke-width:1;"/><line style="stroke:#181818;stroke-width:1;" x1="467.62" x2="467.62" y1="208" y2="200"/><line style="stroke:#181818;stroke-width:1;" x1="470.62" x2="470.62" y1="208" y2="200"/><line style="stroke:#181818;stroke-width:1;" x1="471.62" x2="463.62" y1="204" y2="204"/><line style="stroke:#181818;stroke-width:1;" x1="505.5" x2="511.5" y1="668.96" y2="676.96"/><line style="stroke:#181818;stroke-width:1;" x1="505.5" x2="499.5" y1="668.96" y2="676.96"/><line style="stroke:#181818;stroke-width:1;" x1="505.5" x2="505.5" y1="668.96" y2="676.96"/><ellipse cx="505.5" cy="662.96" fill="transparent" rx="4" ry="4" style="stroke:#181818;stroke-width:1;"/><text fill="#000000" font-family="sans-serif" font-size="13" lengthAdjust="spacing" textLength="35.6548" x="506.5" y="415.6069">maps</text></g><!--link Theatre to Screen--><g id="link_Theatre_Screen"><path codeLine="67" d="M281.12,204 C270.79,204 271.83,204 271.83,204 C271.83,204 271.83,388 271.83,388 C271.83,388 280.33,388 266.77,388 " fill="transparent" id="Theatre-Screen" style="stroke:#181818;stroke-width:1;"/><line style="stroke:#181818;stroke-width:1;" x1="285.12" x2="285.12" y1="200" y2="208"/><line style="stroke:#181818;stroke-width:1;" x1="282.12" x2="282.12" y1="200" y2="208"/><line style="stroke:#181818;stroke-width:1;" x1="281.12" x2="289.12" y1="204" y2="204"/><line style="stroke:#181818;stroke-width:1;" x1="256.77" x2="248.77" y1="388" y2="394"/><line style="stroke:#181818;stroke-width:1;" x1="256.77" x2="248.77" y1="388" y2="382"/><line style="stroke:#181818;stroke-width:1;" x1="256.77" x2="248.77" y1="388" y2="388"/><ellipse cx="262.77" cy="388" fill="transparent" rx="4" ry="4" style="stroke:#181818;stroke-width:1;"/><text fill="#000000" font-family="sans-serif" font-size="13" lengthAdjust="spacing" textLength="22.9785" x="248.83" y="294.9569">has</text></g><!--link Screen to Seat--><g id="link_Screen_Seat"><path codeLine="68" d="M137.25,441.65 C137.25,465.01 137.25,467.59 137.25,491.98 " fill="transparent" id="Screen-Seat" style="stroke:#181818;stroke-width:1;"/><line style="stroke:#181818;stroke-width:1;" x1="133.25" x2="141.25" y1="437.65" y2="437.65"/><line style="stroke:#181818;stroke-width:1;" x1="133.25" x2="141.25" y1="440.65" y2="440.65"/><line style="stroke:#181818;stroke-width:1;" x1="137.25" x2="137.25" y1="441.65" y2="433.65"/><line style="stroke:#181818;stroke-width:1;" x1="137.25" x2="143.25" y1="501.98" y2="509.98"/><line style="stroke:#181818;stroke-width:1;" x1="137.25" x2="131.25" y1="501.98" y2="509.98"/><line style="stroke:#181818;stroke-width:1;" x1="137.25" x2="137.25" y1="501.98" y2="509.98"/><ellipse cx="137.25" cy="495.98" fill="transparent" rx="4" ry="4" style="stroke:#181818;stroke-width:1;"/><text fill="#000000" font-family="sans-serif" font-size="13" lengthAdjust="spacing" textLength="22.9785" x="114.25" y="467.8869">has</text></g><!--link Movie to Show--><g id="link_Movie_Show"><path codeLine="69" d="M345.67,509.85 C345.67,489.23 345.67,490.55 345.67,468.27 " fill="transparent" id="Movie-Show" style="stroke:#181818;stroke-width:1;"/><line style="stroke:#181818;stroke-width:1;" x1="349.67" x2="341.67" y1="513.85" y2="513.85"/><line style="stroke:#181818;stroke-width:1;" x1="349.67" x2="341.67" y1="510.85" y2="510.85"/><line style="stroke:#181818;stroke-width:1;" x1="345.67" x2="345.67" y1="509.85" y2="517.85"/><line style="stroke:#181818;stroke-width:1;" x1="345.67" x2="339.67" y1="458.27" y2="450.27"/><line style="stroke:#181818;stroke-width:1;" x1="345.67" x2="351.67" y1="458.27" y2="450.27"/><line style="stroke:#181818;stroke-width:1;" x1="345.67" x2="345.67" y1="458.27" y2="450.27"/><ellipse cx="345.67" cy="464.27" fill="transparent" rx="4" ry="4" style="stroke:#181818;stroke-width:1;"/><text fill="#000000" font-family="sans-serif" font-size="13" lengthAdjust="spacing" textLength="22.9785" x="322.67" y="480.1269">has</text></g><!--link Show to Movie--><g id="link_Show_Movie"><path codeLine="72" d="M407.33,468.37 C407.33,490.64 407.33,489.29 407.33,509.88 " fill="transparent" id="Show-Movie" style="stroke:#181818;stroke-width:1;"/><line style="stroke:#181818;stroke-width:1;" x1="407.33" x2="401.33" y1="458.37" y2="450.37"/><line style="stroke:#181818;stroke-width:1;" x1="407.33" x2="413.33" y1="458.37" y2="450.37"/><line style="stroke:#181818;stroke-width:1;" x1="407.33" x2="407.33" y1="458.37" y2="450.37"/><ellipse cx="407.33" cy="464.37" fill="transparent" rx="4" ry="4" style="stroke:#181818;stroke-width:1;"/><line style="stroke:#181818;stroke-width:1;" x1="411.33" x2="403.33" y1="513.88" y2="513.88"/><line style="stroke:#181818;stroke-width:1;" x1="411.33" x2="403.33" y1="510.88" y2="510.88"/><line style="stroke:#181818;stroke-width:1;" x1="407.33" x2="407.33" y1="509.88" y2="517.88"/><text fill="#000000" font-family="sans-serif" font-size="13" lengthAdjust="spacing" textLength="68.2627" x="338.33" y="497.1869">belongs to</text></g><!--link Theatre to Show--><g id="link_Theatre_Show"><path codeLine="70" d="M347.5,257.96 C347.5,280.95 347.5,283.11 347.5,307.99 " fill="transparent" id="Theatre-Show" style="stroke:#181818;stroke-width:1;"/><line style="stroke:#181818;stroke-width:1;" x1="343.5" x2="351.5" y1="253.96" y2="253.96"/><line style="stroke:#181818;stroke-width:1;" x1="343.5" x2="351.5" y1="256.96" y2="256.96"/><line style="stroke:#181818;stroke-width:1;" x1="347.5" x2="347.5" y1="257.96" y2="249.96"/><line style="stroke:#181818;stroke-width:1;" x1="347.5" x2="353.5" y1="317.99" y2="325.99"/><line style="stroke:#181818;stroke-width:1;" x1="347.5" x2="341.5" y1="317.99" y2="325.99"/><line style="stroke:#181818;stroke-width:1;" x1="347.5" x2="347.5" y1="317.99" y2="325.99"/><ellipse cx="347.5" cy="311.99" fill="transparent" rx="4" ry="4" style="stroke:#181818;stroke-width:1;"/><text fill="#000000" font-family="sans-serif" font-size="13" lengthAdjust="spacing" textLength="22.9785" x="324.5" y="284.0369">has</text></g><!--link Show to Theatre--><g id="link_Show_Theatre"><path codeLine="73" d="M405.5,307.96 C405.5,283.03 405.5,280.8 405.5,257.78 " fill="transparent" id="Show-Theatre" style="stroke:#181818;stroke-width:1;"/><line style="stroke:#181818;stroke-width:1;" x1="405.5" x2="411.5" y1="317.96" y2="325.96"/><line style="stroke:#181818;stroke-width:1;" x1="405.5" x2="399.5" y1="317.96" y2="325.96"/><line style="stroke:#181818;stroke-width:1;" x1="405.5" x2="405.5" y1="317.96" y2="325.96"/><ellipse cx="405.5" cy="311.96" fill="transparent" rx="4" ry="4" style="stroke:#181818;stroke-width:1;"/><line style="stroke:#181818;stroke-width:1;" x1="401.5" x2="409.5" y1="253.78" y2="253.78"/><line style="stroke:#181818;stroke-width:1;" x1="401.5" x2="409.5" y1="256.78" y2="256.78"/><line style="stroke:#181818;stroke-width:1;" x1="405.5" x2="405.5" y1="257.78" y2="249.78"/><text fill="#000000" font-family="sans-serif" font-size="13" lengthAdjust="spacing" textLength="68.2627" x="406.5" y="283.9369">belongs to</text></g><!--link Booking to Show--><g id="link_Booking_Show"><path codeLine="75" d="M153.25,284.05 C153.25,317.91 153.25,335 153.25,335 C153.25,335 214.18,335 275.44,335 " fill="transparent" id="Booking-Show" style="stroke:#181818;stroke-width:1;"/><line style="stroke:#181818;stroke-width:1;" x1="153.25" x2="147.25" y1="274.05" y2="266.05"/><line style="stroke:#181818;stroke-width:1;" x1="153.25" x2="159.25" y1="274.05" y2="266.05"/><line style="stroke:#181818;stroke-width:1;" x1="153.25" x2="153.25" y1="274.05" y2="266.05"/><ellipse cx="153.25" cy="280.05" fill="transparent" rx="4" ry="4" style="stroke:#181818;stroke-width:1;"/><line style="stroke:#181818;stroke-width:1;" x1="279.44" x2="279.44" y1="331" y2="339"/><line style="stroke:#181818;stroke-width:1;" x1="276.44" x2="276.44" y1="331" y2="339"/><line style="stroke:#181818;stroke-width:1;" x1="275.44" x2="283.44" y1="335" y2="335"/><text fill="#000000" font-family="sans-serif" font-size="13" lengthAdjust="spacing" textLength="17.875" x="165.87" y="331.0669">for</text></g><!--link Booking to Seat--><g id="link_Booking_Seat"><path codeLine="76" d="M47.75,284.21 C47.75,353.04 47.75,436.82 47.75,501.96 " fill="transparent" id="Booking-Seat" style="stroke:#181818;stroke-width:1;"/><line style="stroke:#181818;stroke-width:1;" x1="47.75" x2="41.75" y1="274.21" y2="266.21"/><line style="stroke:#181818;stroke-width:1;" x1="47.75" x2="53.75" y1="274.21" y2="266.21"/><line style="stroke:#181818;stroke-width:1;" x1="47.75" x2="47.75" y1="274.21" y2="266.21"/><ellipse cx="47.75" cy="280.21" fill="transparent" rx="4" ry="4" style="stroke:#181818;stroke-width:1;"/><line style="stroke:#181818;stroke-width:1;" x1="51.75" x2="43.75" y1="505.96" y2="505.96"/><line style="stroke:#181818;stroke-width:1;" x1="51.75" x2="43.75" y1="502.96" y2="502.96"/><line style="stroke:#181818;stroke-width:1;" x1="47.75" x2="47.75" y1="501.96" y2="509.96"/><text fill="#000000" font-family="sans-serif" font-size="13" lengthAdjust="spacing" textLength="12.5303" x="34.75" y="384.1469">of</text></g><!--SRC=[dLDDRy8m3BtdL_Z6Dgb_024E-vBO1fe6zobj0utM95NgRaAK_xwaRLZILXKQ1sZzdf_zZ9tnb472TP8pKdvnML1D1UHSCZmM39J6J172978ymeFzEX60E-0fpE5DoGCi5k-losKJb5Gm4zwYvl90pfUyNSOeQZQLYYrb4oXO8342dtxAiqtvqzuccZ4v9LqsZA5oLt9It30cfGs-gKJCT2XjupixlpayoKfuRKnLMwjlxeOaxFDgh6Q33DsabQR8bLp9DPSLijB0NA9l9bC_asOClaMgSSVxuXPwfCYQh8JczlclcQ6dAyTxhvHPkOFVL5kqtzPu1JlbSQGgcLwbeOUuBTQPkzYmxxQb6RmeBW5fd9lPtN1HvDpi7WWgZn6goFxUkiQRfHJUtpM-fHCJEZkf5iVWGluvrHbyiBnPWZBZHKcQSwthA5AdomasdpbaD8GzGnOMrAItwtWj8V3H4LpH2KgVqvsprwQBE88zIV09wwuhHx1h7X3w9GO4ua9d5KLr3KwnPSGiDtCk0LMVvmyru16tsHqnBBbNUa08NAdzBm00]--></g></svg>